<?xml version="1.0" encoding="UTF-8"?>
<svg xmlns="http://www.w3.org/2000/svg" viewBox="0 0 980 680" width="980" height="680">
  <defs>
    <style>
      @import url('https://fonts.googleapis.com/css2?family=Plus+Jakarta+Sans:wght@400;600;700&amp;display=swap');
      text { font-family: 'Plus Jakarta Sans', 'Segoe UI', Arial, sans-serif; }
    </style>
  </defs>
  <!-- Background -->
  <rect width="100%" height="100%" fill="#ffffff"/>
  
  <!-- Header Title Banner -->
  <rect x="0" y="0" width="980" height="60" fill="#f8fafc"/>
  <line x1="0" y1="60" x2="980" y2="60" stroke="#e2e8f0" stroke-width="1.5"/>
  <rect x="24" y="16" width="6" height="28" rx="3" fill="#056839"/>
  <text x="38" y="32" font-size="16" font-weight="bold" fill="#0f172a">ERD: Modul Pengembalian Berkas Rekam Medis</text>
  <text x="38" y="47" font-size="11" fill="#64748b">Relasi pengembalian berkas fisik (1-to-1 dengan peminjaman) dan petugas penerima</text>

  <!-- Diagram Content -->
  
    <!-- Table: peminjaman -->
    <g id="table_peminjaman">
      <filter id="shadow_peminjaman" x="-5%" y="-5%" width="110%" height="115%">
        <feDropShadow dx="0" dy="3" stdDeviation="3" flood-color="#000000" flood-opacity="0.08"/>
      </filter>
      <rect x="60" y="110" width="340" height="362" rx="6" fill="#ffffff" stroke="#cbd5e1" stroke-width="1.5" filter="url(#shadow_peminjaman)"/>
      <!-- Header -->
      <path d="M 60 116 A 6 6 0 0 1 66 110 L 394 110 A 6 6 0 0 1 400 116 L 400 152 L 60 152 Z" fill="#056839"/>
      <text x="74" y="130" font-size="14" font-family="'Segoe UI', Arial, sans-serif" font-weight="bold" fill="#ffffff">peminjaman</text>
      <text x="74" y="144" font-size="9.5" font-family="'Segoe UI', Arial, sans-serif" fill="#bbf7d0">Transaksi Peminjaman Berkas Fisik</text>
      <line x1="60" y1="152" x2="400" y2="152" stroke="#04522d" stroke-width="1.5"/>
      
        <rect x="60" y="152" width="340" height="24" fill="#f8fafc"/>
        <rect x="68" y="155" width="26" height="17" rx="3" fill="#fef3c7"/>
            <text x="81.0" y="167" font-size="10" font-family="'Segoe UI', Arial, sans-serif" font-weight="bold" fill="#b45309" text-anchor="middle">PK</text>
        <text x="102" y="168" font-size="11.5" font-family="'Segoe UI', Arial, sans-serif" font-weight="600" fill="#0f172a">id</text>
        <text x="388" y="168" font-size="10.5" font-family="'Segoe UI', Arial, sans-serif" fill="#64748b" text-anchor="end">INTEGER</text>
        <line x1="60" y1="176" x2="400" y2="176" stroke="#e2e8f0" stroke-width="1"/>
        
        <rect x="60" y="176" width="340" height="24" fill="#ffffff"/>
        
        <text x="72" y="192" font-size="11.5" font-family="'Segoe UI', Arial, sans-serif" font-weight="600" fill="#0f172a">tanggalPinjam</text>
        <text x="388" y="192" font-size="10.5" font-family="'Segoe UI', Arial, sans-serif" fill="#64748b" text-anchor="end">DATETIME</text>
        <line x1="60" y1="200" x2="400" y2="200" stroke="#e2e8f0" stroke-width="1"/>
        
        <rect x="60" y="200" width="340" height="24" fill="#f8fafc"/>
        
        <text x="72" y="216" font-size="11.5" font-family="'Segoe UI', Arial, sans-serif" font-weight="600" fill="#0f172a">tanggalBerkasKeluar</text>
        <text x="388" y="216" font-size="10.5" font-family="'Segoe UI', Arial, sans-serif" fill="#64748b" text-anchor="end">DATETIME</text>
        <line x1="60" y1="224" x2="400" y2="224" stroke="#e2e8f0" stroke-width="1"/>
        
        <rect x="60" y="224" width="340" height="24" fill="#ffffff"/>
        <rect x="68" y="227" width="26" height="17" rx="3" fill="#dbeafe"/>
            <text x="81.0" y="239" font-size="10" font-family="'Segoe UI', Arial, sans-serif" font-weight="bold" fill="#1d4ed8" text-anchor="middle">FK</text>
        <text x="102" y="240" font-size="11.5" font-family="'Segoe UI', Arial, sans-serif" font-weight="600" fill="#0f172a">peminjamId</text>
        <text x="388" y="240" font-size="10.5" font-family="'Segoe UI', Arial, sans-serif" fill="#64748b" text-anchor="end">INTEGER</text>
        <line x1="60" y1="248" x2="400" y2="248" stroke="#e2e8f0" stroke-width="1"/>
        
        <rect x="60" y="248" width="340" height="24" fill="#f8fafc"/>
        
        <text x="72" y="264" font-size="11.5" font-family="'Segoe UI', Arial, sans-serif" font-weight="600" fill="#0f172a">namaPeminjam</text>
        <text x="388" y="264" font-size="10.5" font-family="'Segoe UI', Arial, sans-serif" fill="#64748b" text-anchor="end">TEXT</text>
        <line x1="60" y1="272" x2="400" y2="272" stroke="#e2e8f0" stroke-width="1"/>
        
        <rect x="60" y="272" width="340" height="24" fill="#ffffff"/>
        
        <text x="72" y="288" font-size="11.5" font-family="'Segoe UI', Arial, sans-serif" font-weight="600" fill="#0f172a">unit</text>
        <text x="388" y="288" font-size="10.5" font-family="'Segoe UI', Arial, sans-serif" fill="#64748b" text-anchor="end">TEXT</text>
        <line x1="60" y1="296" x2="400" y2="296" stroke="#e2e8f0" stroke-width="1"/>
        
        <rect x="60" y="296" width="340" height="24" fill="#f8fafc"/>
        <rect x="68" y="299" width="26" height="17" rx="3" fill="#dbeafe"/>
            <text x="81.0" y="311" font-size="10" font-family="'Segoe UI', Arial, sans-serif" font-weight="bold" fill="#1d4ed8" text-anchor="middle">FK</text>
        <text x="102" y="312" font-size="11.5" font-family="'Segoe UI', Arial, sans-serif" font-weight="600" fill="#0f172a">nomorRm</text>
        <text x="388" y="312" font-size="10.5" font-family="'Segoe UI', Arial, sans-serif" fill="#64748b" text-anchor="end">TEXT</text>
        <line x1="60" y1="320" x2="400" y2="320" stroke="#e2e8f0" stroke-width="1"/>
        
        <rect x="60" y="320" width="340" height="24" fill="#ffffff"/>
        
        <text x="72" y="336" font-size="11.5" font-family="'Segoe UI', Arial, sans-serif" font-weight="600" fill="#0f172a">namaPasien</text>
        <text x="388" y="336" font-size="10.5" font-family="'Segoe UI', Arial, sans-serif" fill="#64748b" text-anchor="end">TEXT</text>
        <line x1="60" y1="344" x2="400" y2="344" stroke="#e2e8f0" stroke-width="1"/>
        
        <rect x="60" y="344" width="340" height="24" fill="#f8fafc"/>
        
        <text x="72" y="360" font-size="11.5" font-family="'Segoe UI', Arial, sans-serif" font-weight="600" fill="#0f172a">jilid</text>
        <text x="388" y="360" font-size="10.5" font-family="'Segoe UI', Arial, sans-serif" fill="#64748b" text-anchor="end">TEXT</text>
        <line x1="60" y1="368" x2="400" y2="368" stroke="#e2e8f0" stroke-width="1"/>
        
        <rect x="60" y="368" width="340" height="24" fill="#ffffff"/>
        
        <text x="72" y="384" font-size="11.5" font-family="'Segoe UI', Arial, sans-serif" font-weight="600" fill="#0f172a">catatan</text>
        <text x="388" y="384" font-size="10.5" font-family="'Segoe UI', Arial, sans-serif" fill="#64748b" text-anchor="end">TEXT</text>
        <line x1="60" y1="392" x2="400" y2="392" stroke="#e2e8f0" stroke-width="1"/>
        
        <rect x="60" y="392" width="340" height="24" fill="#f8fafc"/>
        
        <text x="72" y="408" font-size="11.5" font-family="'Segoe UI', Arial, sans-serif" font-weight="600" fill="#0f172a">status</text>
        <text x="388" y="408" font-size="10.5" font-family="'Segoe UI', Arial, sans-serif" fill="#64748b" text-anchor="end">TEXT</text>
        <line x1="60" y1="416" x2="400" y2="416" stroke="#e2e8f0" stroke-width="1"/>
        
        <rect x="60" y="416" width="340" height="24" fill="#ffffff"/>
        
        <text x="72" y="432" font-size="11.5" font-family="'Segoe UI', Arial, sans-serif" font-weight="600" fill="#0f172a">createdAt</text>
        <text x="388" y="432" font-size="10.5" font-family="'Segoe UI', Arial, sans-serif" fill="#64748b" text-anchor="end">DATETIME</text>
        <line x1="60" y1="440" x2="400" y2="440" stroke="#e2e8f0" stroke-width="1"/>
        
        <rect x="60" y="440" width="340" height="24" fill="#f8fafc"/>
        
        <text x="72" y="456" font-size="11.5" font-family="'Segoe UI', Arial, sans-serif" font-weight="600" fill="#0f172a">updatedAt</text>
        <text x="388" y="456" font-size="10.5" font-family="'Segoe UI', Arial, sans-serif" fill="#64748b" text-anchor="end">DATETIME</text>
        <line x1="60" y1="464" x2="400" y2="464" stroke="#e2e8f0" stroke-width="1"/>
        
    </g>
    
    <!-- Table: pengembalian -->
    <g id="table_pengembalian">
      <filter id="shadow_pengembalian" x="-5%" y="-5%" width="110%" height="115%">
        <feDropShadow dx="0" dy="3" stdDeviation="3" flood-color="#000000" flood-opacity="0.08"/>
      </filter>
      <rect x="560" y="90" width="330" height="242" rx="6" fill="#ffffff" stroke="#cbd5e1" stroke-width="1.5" filter="url(#shadow_pengembalian)"/>
      <!-- Header -->
      <path d="M 560 96 A 6 6 0 0 1 566 90 L 884 90 A 6 6 0 0 1 890 96 L 890 132 L 560 132 Z" fill="#056839"/>
      <text x="574" y="110" font-size="14" font-family="'Segoe UI', Arial, sans-serif" font-weight="bold" fill="#ffffff">pengembalian</text>
      <text x="574" y="124" font-size="9.5" font-family="'Segoe UI', Arial, sans-serif" fill="#bbf7d0">Penerimaan Kembali Berkas Fisik</text>
      <line x1="560" y1="132" x2="890" y2="132" stroke="#04522d" stroke-width="1.5"/>
      
        <rect x="560" y="132" width="330" height="24" fill="#f8fafc"/>
        <rect x="568" y="135" width="26" height="17" rx="3" fill="#fef3c7"/>
            <text x="581.0" y="147" font-size="10" font-family="'Segoe UI', Arial, sans-serif" font-weight="bold" fill="#b45309" text-anchor="middle">PK</text>
        <text x="602" y="148" font-size="11.5" font-family="'Segoe UI', Arial, sans-serif" font-weight="600" fill="#0f172a">id</text>
        <text x="878" y="148" font-size="10.5" font-family="'Segoe UI', Arial, sans-serif" fill="#64748b" text-anchor="end">INTEGER</text>
        <line x1="560" y1="156" x2="890" y2="156" stroke="#e2e8f0" stroke-width="1"/>
        
        <rect x="560" y="156" width="330" height="24" fill="#ffffff"/>
        <rect x="568" y="159" width="42" height="17" rx="3" fill="#dbeafe"/>
            <text x="589.0" y="171" font-size="10" font-family="'Segoe UI', Arial, sans-serif" font-weight="bold" fill="#1d4ed8" text-anchor="middle">FK/UK</text>
        <text x="618" y="172" font-size="11.5" font-family="'Segoe UI', Arial, sans-serif" font-weight="600" fill="#0f172a">peminjamanId</text>
        <text x="878" y="172" font-size="10.5" font-family="'Segoe UI', Arial, sans-serif" fill="#64748b" text-anchor="end">INTEGER</text>
        <line x1="560" y1="180" x2="890" y2="180" stroke="#e2e8f0" stroke-width="1"/>
        
        <rect x="560" y="180" width="330" height="24" fill="#f8fafc"/>
        
        <text x="572" y="196" font-size="11.5" font-family="'Segoe UI', Arial, sans-serif" font-weight="600" fill="#0f172a">tanggalBerkasKembali</text>
        <text x="878" y="196" font-size="10.5" font-family="'Segoe UI', Arial, sans-serif" fill="#64748b" text-anchor="end">DATETIME</text>
        <line x1="560" y1="204" x2="890" y2="204" stroke="#e2e8f0" stroke-width="1"/>
        
        <rect x="560" y="204" width="330" height="24" fill="#ffffff"/>
        <rect x="568" y="207" width="26" height="17" rx="3" fill="#dbeafe"/>
            <text x="581.0" y="219" font-size="10" font-family="'Segoe UI', Arial, sans-serif" font-weight="bold" fill="#1d4ed8" text-anchor="middle">FK</text>
        <text x="602" y="220" font-size="11.5" font-family="'Segoe UI', Arial, sans-serif" font-weight="600" fill="#0f172a">dikembalikanOlehId</text>
        <text x="878" y="220" font-size="10.5" font-family="'Segoe UI', Arial, sans-serif" fill="#64748b" text-anchor="end">INTEGER</text>
        <line x1="560" y1="228" x2="890" y2="228" stroke="#e2e8f0" stroke-width="1"/>
        
        <rect x="560" y="228" width="330" height="24" fill="#f8fafc"/>
        
        <text x="572" y="244" font-size="11.5" font-family="'Segoe UI', Arial, sans-serif" font-weight="600" fill="#0f172a">konfirmasiKembali</text>
        <text x="878" y="244" font-size="10.5" font-family="'Segoe UI', Arial, sans-serif" fill="#64748b" text-anchor="end">BOOLEAN</text>
        <line x1="560" y1="252" x2="890" y2="252" stroke="#e2e8f0" stroke-width="1"/>
        
        <rect x="560" y="252" width="330" height="24" fill="#ffffff"/>
        
        <text x="572" y="268" font-size="11.5" font-family="'Segoe UI', Arial, sans-serif" font-weight="600" fill="#0f172a">kondisiBerkas</text>
        <text x="878" y="268" font-size="10.5" font-family="'Segoe UI', Arial, sans-serif" fill="#64748b" text-anchor="end">TEXT</text>
        <line x1="560" y1="276" x2="890" y2="276" stroke="#e2e8f0" stroke-width="1"/>
        
        <rect x="560" y="276" width="330" height="24" fill="#f8fafc"/>
        
        <text x="572" y="292" font-size="11.5" font-family="'Segoe UI', Arial, sans-serif" font-weight="600" fill="#0f172a">createdAt</text>
        <text x="878" y="292" font-size="10.5" font-family="'Segoe UI', Arial, sans-serif" fill="#64748b" text-anchor="end">DATETIME</text>
        <line x1="560" y1="300" x2="890" y2="300" stroke="#e2e8f0" stroke-width="1"/>
        
        <rect x="560" y="300" width="330" height="24" fill="#ffffff"/>
        
        <text x="572" y="316" font-size="11.5" font-family="'Segoe UI', Arial, sans-serif" font-weight="600" fill="#0f172a">updatedAt</text>
        <text x="878" y="316" font-size="10.5" font-family="'Segoe UI', Arial, sans-serif" fill="#64748b" text-anchor="end">DATETIME</text>
        <line x1="560" y1="324" x2="890" y2="324" stroke="#e2e8f0" stroke-width="1"/>
        
    </g>
    
    <!-- Table: users -->
    <g id="table_users">
      <filter id="shadow_users" x="-5%" y="-5%" width="110%" height="115%">
        <feDropShadow dx="0" dy="3" stdDeviation="3" flood-color="#000000" flood-opacity="0.08"/>
      </filter>
      <rect x="560" y="360" width="310" height="266" rx="6" fill="#ffffff" stroke="#cbd5e1" stroke-width="1.5" filter="url(#shadow_users)"/>
      <!-- Header -->
      <path d="M 560 366 A 6 6 0 0 1 566 360 L 864 360 A 6 6 0 0 1 870 366 L 870 402 L 560 402 Z" fill="#056839"/>
      <text x="574" y="380" font-size="14" font-family="'Segoe UI', Arial, sans-serif" font-weight="bold" fill="#ffffff">users</text>
      <text x="574" y="394" font-size="9.5" font-family="'Segoe UI', Arial, sans-serif" fill="#bbf7d0">Data Akun & Hak Akses Pengguna</text>
      <line x1="560" y1="402" x2="870" y2="402" stroke="#04522d" stroke-width="1.5"/>
      
        <rect x="560" y="402" width="310" height="24" fill="#f8fafc"/>
        <rect x="568" y="405" width="26" height="17" rx="3" fill="#fef3c7"/>
            <text x="581.0" y="417" font-size="10" font-family="'Segoe UI', Arial, sans-serif" font-weight="bold" fill="#b45309" text-anchor="middle">PK</text>
        <text x="602" y="418" font-size="11.5" font-family="'Segoe UI', Arial, sans-serif" font-weight="600" fill="#0f172a">id</text>
        <text x="858" y="418" font-size="10.5" font-family="'Segoe UI', Arial, sans-serif" fill="#64748b" text-anchor="end">INTEGER</text>
        <line x1="560" y1="426" x2="870" y2="426" stroke="#e2e8f0" stroke-width="1"/>
        
        <rect x="560" y="426" width="310" height="24" fill="#ffffff"/>
        <rect x="568" y="429" width="26" height="17" rx="3" fill="#f3e8ff"/>
            <text x="581.0" y="441" font-size="10" font-family="'Segoe UI', Arial, sans-serif" font-weight="bold" fill="#7e22ce" text-anchor="middle">UK</text>
        <text x="602" y="442" font-size="11.5" font-family="'Segoe UI', Arial, sans-serif" font-weight="600" fill="#0f172a">nip</text>
        <text x="858" y="442" font-size="10.5" font-family="'Segoe UI', Arial, sans-serif" fill="#64748b" text-anchor="end">TEXT</text>
        <line x1="560" y1="450" x2="870" y2="450" stroke="#e2e8f0" stroke-width="1"/>
        
        <rect x="560" y="450" width="310" height="24" fill="#f8fafc"/>
        <rect x="568" y="453" width="26" height="17" rx="3" fill="#f3e8ff"/>
            <text x="581.0" y="465" font-size="10" font-family="'Segoe UI', Arial, sans-serif" font-weight="bold" fill="#7e22ce" text-anchor="middle">UK</text>
        <text x="602" y="466" font-size="11.5" font-family="'Segoe UI', Arial, sans-serif" font-weight="600" fill="#0f172a">email</text>
        <text x="858" y="466" font-size="10.5" font-family="'Segoe UI', Arial, sans-serif" fill="#64748b" text-anchor="end">TEXT</text>
        <line x1="560" y1="474" x2="870" y2="474" stroke="#e2e8f0" stroke-width="1"/>
        
        <rect x="560" y="474" width="310" height="24" fill="#ffffff"/>
        
        <text x="572" y="490" font-size="11.5" font-family="'Segoe UI', Arial, sans-serif" font-weight="600" fill="#0f172a">passwordHash</text>
        <text x="858" y="490" font-size="10.5" font-family="'Segoe UI', Arial, sans-serif" fill="#64748b" text-anchor="end">TEXT</text>
        <line x1="560" y1="498" x2="870" y2="498" stroke="#e2e8f0" stroke-width="1"/>
        
        <rect x="560" y="498" width="310" height="24" fill="#f8fafc"/>
        
        <text x="572" y="514" font-size="11.5" font-family="'Segoe UI', Arial, sans-serif" font-weight="600" fill="#0f172a">name</text>
        <text x="858" y="514" font-size="10.5" font-family="'Segoe UI', Arial, sans-serif" fill="#64748b" text-anchor="end">TEXT</text>
        <line x1="560" y1="522" x2="870" y2="522" stroke="#e2e8f0" stroke-width="1"/>
        
        <rect x="560" y="522" width="310" height="24" fill="#ffffff"/>
        
        <text x="572" y="538" font-size="11.5" font-family="'Segoe UI', Arial, sans-serif" font-weight="600" fill="#0f172a">role</text>
        <text x="858" y="538" font-size="10.5" font-family="'Segoe UI', Arial, sans-serif" fill="#64748b" text-anchor="end">TEXT</text>
        <line x1="560" y1="546" x2="870" y2="546" stroke="#e2e8f0" stroke-width="1"/>
        
        <rect x="560" y="546" width="310" height="24" fill="#f8fafc"/>
        
        <text x="572" y="562" font-size="11.5" font-family="'Segoe UI', Arial, sans-serif" font-weight="600" fill="#0f172a">avatarPath</text>
        <text x="858" y="562" font-size="10.5" font-family="'Segoe UI', Arial, sans-serif" fill="#64748b" text-anchor="end">TEXT</text>
        <line x1="560" y1="570" x2="870" y2="570" stroke="#e2e8f0" stroke-width="1"/>
        
        <rect x="560" y="570" width="310" height="24" fill="#ffffff"/>
        
        <text x="572" y="586" font-size="11.5" font-family="'Segoe UI', Arial, sans-serif" font-weight="600" fill="#0f172a">createdAt</text>
        <text x="858" y="586" font-size="10.5" font-family="'Segoe UI', Arial, sans-serif" fill="#64748b" text-anchor="end">DATETIME</text>
        <line x1="560" y1="594" x2="870" y2="594" stroke="#e2e8f0" stroke-width="1"/>
        
        <rect x="560" y="594" width="310" height="24" fill="#f8fafc"/>
        
        <text x="572" y="610" font-size="11.5" font-family="'Segoe UI', Arial, sans-serif" font-weight="600" fill="#0f172a">updatedAt</text>
        <text x="858" y="610" font-size="10.5" font-family="'Segoe UI', Arial, sans-serif" fill="#64748b" text-anchor="end">DATETIME</text>
        <line x1="560" y1="618" x2="870" y2="618" stroke="#e2e8f0" stroke-width="1"/>
        
    </g>
    
    <g class="connector">
      <path d="M 400 200 L 480 200 L 480 140 L 560 140" fill="none" stroke="#2563eb" stroke-width="2" stroke-linecap="round" stroke-linejoin="round"/>
      <circle cx="400" cy="200" r="3.5" fill="#2563eb"/>
      <polygon points="560,140 554,136 554,144" fill="#2563eb" transform="rotate(0.0, 560, 140)"/>
      <text x="415" y="194" font-size="11" font-family="'Segoe UI', Arial, sans-serif" font-weight="bold" fill="#1e293b">1</text>
      <text x="542" y="134" font-size="11" font-family="'Segoe UI', Arial, sans-serif" font-weight="bold" fill="#1e293b">0..1</text>
      
        <rect x="377.75" y="160" width="204.5" height="20" rx="4" fill="#ffffff" stroke="#94a3b8" stroke-width="1"/>
        <text x="480" y="174" font-size="10" font-family="'Segoe UI', Arial, sans-serif" font-weight="600" fill="#334155" text-anchor="middle">FK: peminjamanId (UNIQUE 1:1)</text>
        
    </g>
    
    <g class="connector">
      <path d="M 720 360 L 720 305" fill="none" stroke="#2563eb" stroke-width="2" stroke-linecap="round" stroke-linejoin="round"/>
      <circle cx="720" cy="360" r="3.5" fill="#2563eb"/>
      <polygon points="720,305 714,301 714,309" fill="#2563eb" transform="rotate(-90.0, 720, 305)"/>
      <text x="720" y="350" font-size="11" font-family="'Segoe UI', Arial, sans-serif" font-weight="bold" fill="#1e293b">1</text>
      <text x="720" y="320" font-size="11" font-family="'Segoe UI', Arial, sans-serif" font-weight="bold" fill="#1e293b">0..N</text>
      
        <rect x="621.0" y="322" width="198.0" height="20" rx="4" fill="#ffffff" stroke="#94a3b8" stroke-width="1"/>
        <text x="720" y="336" font-size="10" font-family="'Segoe UI', Arial, sans-serif" font-weight="600" fill="#334155" text-anchor="middle">FK: dikembalikanOlehId (1:N)</text>
        
    </g>
    

  <!-- Footer Watermark -->
  <text x="956" y="668" font-size="9.5" fill="#94a3b8" text-anchor="end">Filing Rekam Medis — RSI Sultan Agung Semarang</text>
</svg>